<mxfile host="app.diagrams.net" agent="Mozilla/5.0 (Windows NT 10.0; Win64; x64) AppleWebKit/537.36 (KHTML, like Gecko) Chrome/131.0.0.0 Safari/537.36" version="25.0.3">
  <diagram name="第 1 页" id="wkAVk0HVmpbM3zxjKjzw">
    <mxGraphModel dx="1434" dy="1915" grid="1" gridSize="10" guides="1" tooltips="1" connect="1" arrows="1" fold="1" page="1" pageScale="1" pageWidth="827" pageHeight="1169" math="0" shadow="0">
      <root>
        <mxCell id="0" />
        <mxCell id="1" parent="0" />
        <mxCell id="MVeQhwrsyIrDF9fDx8zw-50" style="edgeStyle=orthogonalEdgeStyle;rounded=0;orthogonalLoop=1;jettySize=auto;html=1;" edge="1" parent="1" source="MVeQhwrsyIrDF9fDx8zw-26" target="MVeQhwrsyIrDF9fDx8zw-49">
          <mxGeometry relative="1" as="geometry" />
        </mxCell>
        <mxCell id="MVeQhwrsyIrDF9fDx8zw-26" value="" style="fontStyle=0;verticalAlign=top;align=center;spacingTop=-2;fillColor=none;rounded=0;whiteSpace=wrap;html=1;strokeColor=#919191;strokeWidth=2;dashed=1;container=1;collapsible=0;expand=0;recursiveResize=0;" vertex="1" parent="1">
          <mxGeometry x="695" y="130" width="200" height="460" as="geometry" />
        </mxCell>
        <mxCell id="MVeQhwrsyIrDF9fDx8zw-9" style="edgeStyle=orthogonalEdgeStyle;rounded=0;orthogonalLoop=1;jettySize=auto;html=1;entryX=0;entryY=0.5;entryDx=0;entryDy=0;" edge="1" parent="1" source="MVeQhwrsyIrDF9fDx8zw-1" target="MVeQhwrsyIrDF9fDx8zw-4">
          <mxGeometry relative="1" as="geometry" />
        </mxCell>
        <mxCell id="MVeQhwrsyIrDF9fDx8zw-1" value="" style="image;aspect=fixed;perimeter=ellipsePerimeter;html=1;align=center;shadow=0;dashed=0;fontColor=#4277BB;labelBackgroundColor=default;fontSize=12;spacingTop=3;image=img/lib/ibm/users/user.svg;" vertex="1" parent="1">
          <mxGeometry x="50" y="330" width="60" height="60" as="geometry" />
        </mxCell>
        <mxCell id="MVeQhwrsyIrDF9fDx8zw-2" value="用户" style="text;html=1;align=center;verticalAlign=middle;resizable=0;points=[];autosize=1;strokeColor=none;fillColor=none;" vertex="1" parent="1">
          <mxGeometry x="55" y="398" width="50" height="30" as="geometry" />
        </mxCell>
        <mxCell id="MVeQhwrsyIrDF9fDx8zw-3" value="500万UV" style="text;html=1;align=center;verticalAlign=middle;resizable=0;points=[];autosize=1;strokeColor=none;fillColor=none;fontStyle=1" vertex="1" parent="1">
          <mxGeometry x="35" y="228" width="70" height="30" as="geometry" />
        </mxCell>
        <mxCell id="MVeQhwrsyIrDF9fDx8zw-7" style="edgeStyle=orthogonalEdgeStyle;rounded=0;orthogonalLoop=1;jettySize=auto;html=1;entryX=0.5;entryY=1;entryDx=0;entryDy=0;" edge="1" parent="1" source="MVeQhwrsyIrDF9fDx8zw-4" target="MVeQhwrsyIrDF9fDx8zw-6">
          <mxGeometry relative="1" as="geometry" />
        </mxCell>
        <mxCell id="MVeQhwrsyIrDF9fDx8zw-12" style="edgeStyle=orthogonalEdgeStyle;rounded=0;orthogonalLoop=1;jettySize=auto;html=1;entryX=0;entryY=0.5;entryDx=0;entryDy=0;" edge="1" parent="1" source="MVeQhwrsyIrDF9fDx8zw-4" target="MVeQhwrsyIrDF9fDx8zw-10">
          <mxGeometry relative="1" as="geometry" />
        </mxCell>
        <mxCell id="MVeQhwrsyIrDF9fDx8zw-4" value="" style="image;aspect=fixed;perimeter=ellipsePerimeter;html=1;align=center;shadow=0;dashed=0;fontColor=#4277BB;labelBackgroundColor=default;fontSize=12;spacingTop=3;image=img/lib/ibm/users/browser.svg;" vertex="1" parent="1">
          <mxGeometry x="190" y="330" width="60" height="60" as="geometry" />
        </mxCell>
        <mxCell id="MVeQhwrsyIrDF9fDx8zw-5" value="电脑" style="text;html=1;align=center;verticalAlign=middle;resizable=0;points=[];autosize=1;strokeColor=none;fillColor=none;" vertex="1" parent="1">
          <mxGeometry x="195" y="398" width="50" height="30" as="geometry" />
        </mxCell>
        <mxCell id="MVeQhwrsyIrDF9fDx8zw-6" value="" style="image;aspect=fixed;perimeter=ellipsePerimeter;html=1;align=center;shadow=0;dashed=0;fontColor=#4277BB;labelBackgroundColor=default;fontSize=12;spacingTop=3;image=img/lib/ibm/infrastructure/channels.svg;" vertex="1" parent="1">
          <mxGeometry x="190" y="160" width="60" height="60" as="geometry" />
        </mxCell>
        <mxCell id="MVeQhwrsyIrDF9fDx8zw-8" value="DNS服务" style="text;html=1;align=center;verticalAlign=middle;resizable=0;points=[];autosize=1;strokeColor=none;fillColor=none;" vertex="1" parent="1">
          <mxGeometry x="180" y="228" width="70" height="30" as="geometry" />
        </mxCell>
        <mxCell id="MVeQhwrsyIrDF9fDx8zw-19" style="edgeStyle=orthogonalEdgeStyle;rounded=0;orthogonalLoop=1;jettySize=auto;html=1;entryX=0;entryY=0.5;entryDx=0;entryDy=0;" edge="1" parent="1" source="MVeQhwrsyIrDF9fDx8zw-10" target="MVeQhwrsyIrDF9fDx8zw-17">
          <mxGeometry relative="1" as="geometry" />
        </mxCell>
        <mxCell id="MVeQhwrsyIrDF9fDx8zw-10" value="" style="image;aspect=fixed;perimeter=ellipsePerimeter;html=1;align=center;shadow=0;dashed=0;fontColor=#4277BB;labelBackgroundColor=default;fontSize=12;spacingTop=3;image=img/lib/ibm/applications/app_server.svg;" vertex="1" parent="1">
          <mxGeometry x="354" y="330" width="60" height="60" as="geometry" />
        </mxCell>
        <mxCell id="MVeQhwrsyIrDF9fDx8zw-11" value="网关集群" style="text;html=1;align=center;verticalAlign=middle;resizable=0;points=[];autosize=1;strokeColor=none;fillColor=none;" vertex="1" parent="1">
          <mxGeometry x="349" y="390" width="70" height="30" as="geometry" />
        </mxCell>
        <mxCell id="MVeQhwrsyIrDF9fDx8zw-13" value="" style="image;aspect=fixed;perimeter=ellipsePerimeter;html=1;align=center;shadow=0;dashed=0;fontColor=#4277BB;labelBackgroundColor=default;fontSize=12;spacingTop=3;image=img/lib/ibm/applications/app_server.svg;" vertex="1" parent="1">
          <mxGeometry x="520" y="238" width="60" height="60" as="geometry" />
        </mxCell>
        <mxCell id="MVeQhwrsyIrDF9fDx8zw-14" value="企业应用A" style="text;html=1;align=center;verticalAlign=middle;resizable=0;points=[];autosize=1;strokeColor=none;fillColor=none;" vertex="1" parent="1">
          <mxGeometry x="510" y="305" width="80" height="30" as="geometry" />
        </mxCell>
        <mxCell id="MVeQhwrsyIrDF9fDx8zw-15" value="" style="image;aspect=fixed;perimeter=ellipsePerimeter;html=1;align=center;shadow=0;dashed=0;fontColor=#4277BB;labelBackgroundColor=default;fontSize=12;spacingTop=3;image=img/lib/ibm/applications/app_server.svg;" vertex="1" parent="1">
          <mxGeometry x="520" y="395" width="60" height="60" as="geometry" />
        </mxCell>
        <mxCell id="MVeQhwrsyIrDF9fDx8zw-16" value="企业应用B" style="text;html=1;align=center;verticalAlign=middle;resizable=0;points=[];autosize=1;strokeColor=none;fillColor=none;" vertex="1" parent="1">
          <mxGeometry x="510" y="462" width="80" height="30" as="geometry" />
        </mxCell>
        <mxCell id="MVeQhwrsyIrDF9fDx8zw-29" style="edgeStyle=orthogonalEdgeStyle;rounded=0;orthogonalLoop=1;jettySize=auto;html=1;entryX=0;entryY=0.5;entryDx=0;entryDy=0;" edge="1" parent="1" source="MVeQhwrsyIrDF9fDx8zw-17" target="MVeQhwrsyIrDF9fDx8zw-26">
          <mxGeometry relative="1" as="geometry" />
        </mxCell>
        <mxCell id="MVeQhwrsyIrDF9fDx8zw-17" value="" style="fontStyle=0;verticalAlign=top;align=center;spacingTop=-2;fillColor=none;rounded=0;whiteSpace=wrap;html=1;strokeColor=#919191;strokeWidth=2;dashed=1;container=1;collapsible=0;expand=0;recursiveResize=0;" vertex="1" parent="1">
          <mxGeometry x="470" y="205" width="160" height="310" as="geometry" />
        </mxCell>
        <mxCell id="MVeQhwrsyIrDF9fDx8zw-18" value="小前台" style="text;html=1;align=center;verticalAlign=middle;resizable=0;points=[];autosize=1;strokeColor=none;fillColor=none;fontStyle=1" vertex="1" parent="1">
          <mxGeometry x="470" y="160" width="60" height="30" as="geometry" />
        </mxCell>
        <mxCell id="MVeQhwrsyIrDF9fDx8zw-20" value="" style="image;aspect=fixed;perimeter=ellipsePerimeter;html=1;align=center;shadow=0;dashed=0;fontColor=#4277BB;labelBackgroundColor=default;fontSize=12;spacingTop=3;image=img/lib/ibm/applications/app_server.svg;" vertex="1" parent="1">
          <mxGeometry x="760" y="168" width="60" height="60" as="geometry" />
        </mxCell>
        <mxCell id="MVeQhwrsyIrDF9fDx8zw-21" value="公共服务A集群" style="text;html=1;align=center;verticalAlign=middle;resizable=0;points=[];autosize=1;strokeColor=none;fillColor=none;" vertex="1" parent="1">
          <mxGeometry x="740" y="238" width="100" height="30" as="geometry" />
        </mxCell>
        <mxCell id="MVeQhwrsyIrDF9fDx8zw-22" value="" style="image;aspect=fixed;perimeter=ellipsePerimeter;html=1;align=center;shadow=0;dashed=0;fontColor=#4277BB;labelBackgroundColor=default;fontSize=12;spacingTop=3;image=img/lib/ibm/applications/app_server.svg;" vertex="1" parent="1">
          <mxGeometry x="760" y="310" width="60" height="60" as="geometry" />
        </mxCell>
        <mxCell id="MVeQhwrsyIrDF9fDx8zw-23" value="公共服务B集群" style="text;html=1;align=center;verticalAlign=middle;resizable=0;points=[];autosize=1;strokeColor=none;fillColor=none;" vertex="1" parent="1">
          <mxGeometry x="740" y="380" width="100" height="30" as="geometry" />
        </mxCell>
        <mxCell id="MVeQhwrsyIrDF9fDx8zw-24" value="" style="image;aspect=fixed;perimeter=ellipsePerimeter;html=1;align=center;shadow=0;dashed=0;fontColor=#4277BB;labelBackgroundColor=default;fontSize=12;spacingTop=3;image=img/lib/ibm/applications/app_server.svg;" vertex="1" parent="1">
          <mxGeometry x="760" y="455" width="60" height="60" as="geometry" />
        </mxCell>
        <mxCell id="MVeQhwrsyIrDF9fDx8zw-25" value="公共服务C集群" style="text;html=1;align=center;verticalAlign=middle;resizable=0;points=[];autosize=1;strokeColor=none;fillColor=none;" vertex="1" parent="1">
          <mxGeometry x="740" y="525" width="100" height="30" as="geometry" />
        </mxCell>
        <mxCell id="MVeQhwrsyIrDF9fDx8zw-27" value="大中台" style="text;html=1;align=center;verticalAlign=middle;resizable=0;points=[];autosize=1;strokeColor=none;fillColor=none;fontStyle=1" vertex="1" parent="1">
          <mxGeometry x="695" y="100" width="60" height="30" as="geometry" />
        </mxCell>
        <mxCell id="MVeQhwrsyIrDF9fDx8zw-30" value="" style="fontStyle=0;verticalAlign=top;align=center;spacingTop=-2;fillColor=none;rounded=0;whiteSpace=wrap;html=1;strokeColor=#919191;strokeWidth=2;dashed=1;container=1;collapsible=0;expand=0;recursiveResize=0;" vertex="1" parent="1">
          <mxGeometry x="372" y="-120" width="740" height="150" as="geometry" />
        </mxCell>
        <mxCell id="MVeQhwrsyIrDF9fDx8zw-31" value="" style="image;aspect=fixed;perimeter=ellipsePerimeter;html=1;align=center;shadow=0;dashed=0;fontColor=#4277BB;labelBackgroundColor=default;fontSize=12;spacingTop=3;image=img/lib/ibm/applications/app_server.svg;" vertex="1" parent="MVeQhwrsyIrDF9fDx8zw-30">
          <mxGeometry x="70" y="25" width="60" height="60" as="geometry" />
        </mxCell>
        <mxCell id="MVeQhwrsyIrDF9fDx8zw-32" value="服务注册发现" style="text;html=1;align=center;verticalAlign=middle;resizable=0;points=[];autosize=1;strokeColor=none;fillColor=none;" vertex="1" parent="MVeQhwrsyIrDF9fDx8zw-30">
          <mxGeometry x="50" y="95" width="100" height="30" as="geometry" />
        </mxCell>
        <mxCell id="MVeQhwrsyIrDF9fDx8zw-33" value="" style="image;aspect=fixed;perimeter=ellipsePerimeter;html=1;align=center;shadow=0;dashed=0;fontColor=#4277BB;labelBackgroundColor=default;fontSize=12;spacingTop=3;image=img/lib/ibm/applications/app_server.svg;" vertex="1" parent="MVeQhwrsyIrDF9fDx8zw-30">
          <mxGeometry x="205" y="25" width="60" height="60" as="geometry" />
        </mxCell>
        <mxCell id="MVeQhwrsyIrDF9fDx8zw-34" value="配置中心" style="text;html=1;align=center;verticalAlign=middle;resizable=0;points=[];autosize=1;strokeColor=none;fillColor=none;" vertex="1" parent="MVeQhwrsyIrDF9fDx8zw-30">
          <mxGeometry x="200" y="95" width="70" height="30" as="geometry" />
        </mxCell>
        <mxCell id="MVeQhwrsyIrDF9fDx8zw-35" value="" style="image;aspect=fixed;perimeter=ellipsePerimeter;html=1;align=center;shadow=0;dashed=0;fontColor=#4277BB;labelBackgroundColor=default;fontSize=12;spacingTop=3;image=img/lib/ibm/applications/app_server.svg;" vertex="1" parent="MVeQhwrsyIrDF9fDx8zw-30">
          <mxGeometry x="350" y="25" width="60" height="60" as="geometry" />
        </mxCell>
        <mxCell id="MVeQhwrsyIrDF9fDx8zw-36" value="链路追踪" style="text;html=1;align=center;verticalAlign=middle;resizable=0;points=[];autosize=1;strokeColor=none;fillColor=none;" vertex="1" parent="MVeQhwrsyIrDF9fDx8zw-30">
          <mxGeometry x="345" y="95" width="70" height="30" as="geometry" />
        </mxCell>
        <mxCell id="MVeQhwrsyIrDF9fDx8zw-37" value="" style="image;aspect=fixed;perimeter=ellipsePerimeter;html=1;align=center;shadow=0;dashed=0;fontColor=#4277BB;labelBackgroundColor=default;fontSize=12;spacingTop=3;image=img/lib/ibm/applications/app_server.svg;" vertex="1" parent="MVeQhwrsyIrDF9fDx8zw-30">
          <mxGeometry x="500" y="25" width="60" height="60" as="geometry" />
        </mxCell>
        <mxCell id="MVeQhwrsyIrDF9fDx8zw-38" value="流控降级" style="text;html=1;align=center;verticalAlign=middle;resizable=0;points=[];autosize=1;strokeColor=none;fillColor=none;" vertex="1" parent="MVeQhwrsyIrDF9fDx8zw-30">
          <mxGeometry x="495" y="95" width="70" height="30" as="geometry" />
        </mxCell>
        <mxCell id="MVeQhwrsyIrDF9fDx8zw-39" value="" style="image;aspect=fixed;perimeter=ellipsePerimeter;html=1;align=center;shadow=0;dashed=0;fontColor=#4277BB;labelBackgroundColor=default;fontSize=12;spacingTop=3;image=img/lib/ibm/applications/app_server.svg;" vertex="1" parent="MVeQhwrsyIrDF9fDx8zw-30">
          <mxGeometry x="630" y="25" width="60" height="60" as="geometry" />
        </mxCell>
        <mxCell id="MVeQhwrsyIrDF9fDx8zw-40" value="监控告警" style="text;html=1;align=center;verticalAlign=middle;resizable=0;points=[];autosize=1;strokeColor=none;fillColor=none;" vertex="1" parent="MVeQhwrsyIrDF9fDx8zw-30">
          <mxGeometry x="625" y="95" width="70" height="30" as="geometry" />
        </mxCell>
        <mxCell id="MVeQhwrsyIrDF9fDx8zw-42" style="edgeStyle=orthogonalEdgeStyle;rounded=0;orthogonalLoop=1;jettySize=auto;html=1;entryX=0.572;entryY=0.993;entryDx=0;entryDy=0;entryPerimeter=0;" edge="1" parent="1" source="MVeQhwrsyIrDF9fDx8zw-26" target="MVeQhwrsyIrDF9fDx8zw-30">
          <mxGeometry relative="1" as="geometry" />
        </mxCell>
        <mxCell id="MVeQhwrsyIrDF9fDx8zw-43" value="" style="image;aspect=fixed;perimeter=ellipsePerimeter;html=1;align=center;shadow=0;dashed=0;fontColor=#4277BB;labelBackgroundColor=default;fontSize=12;spacingTop=3;image=img/lib/ibm/data/data_services.svg;" vertex="1" parent="1">
          <mxGeometry x="1030" y="168" width="60" height="60" as="geometry" />
        </mxCell>
        <mxCell id="MVeQhwrsyIrDF9fDx8zw-44" value="数据库-集群" style="text;html=1;align=center;verticalAlign=middle;resizable=0;points=[];autosize=1;strokeColor=none;fillColor=none;" vertex="1" parent="1">
          <mxGeometry x="1015" y="236" width="90" height="30" as="geometry" />
        </mxCell>
        <mxCell id="MVeQhwrsyIrDF9fDx8zw-45" value="" style="image;aspect=fixed;perimeter=ellipsePerimeter;html=1;align=center;shadow=0;dashed=0;fontColor=#4277BB;labelBackgroundColor=default;fontSize=12;spacingTop=3;image=img/lib/ibm/data/data_services.svg;" vertex="1" parent="1">
          <mxGeometry x="1030" y="310" width="60" height="60" as="geometry" />
        </mxCell>
        <mxCell id="MVeQhwrsyIrDF9fDx8zw-46" value="数据库-集群" style="text;html=1;align=center;verticalAlign=middle;resizable=0;points=[];autosize=1;strokeColor=none;fillColor=none;" vertex="1" parent="1">
          <mxGeometry x="1015" y="378" width="90" height="30" as="geometry" />
        </mxCell>
        <mxCell id="MVeQhwrsyIrDF9fDx8zw-47" value="" style="image;aspect=fixed;perimeter=ellipsePerimeter;html=1;align=center;shadow=0;dashed=0;fontColor=#4277BB;labelBackgroundColor=default;fontSize=12;spacingTop=3;image=img/lib/ibm/data/data_services.svg;" vertex="1" parent="1">
          <mxGeometry x="1030" y="455" width="60" height="60" as="geometry" />
        </mxCell>
        <mxCell id="MVeQhwrsyIrDF9fDx8zw-48" value="数据库-集群" style="text;html=1;align=center;verticalAlign=middle;resizable=0;points=[];autosize=1;strokeColor=none;fillColor=none;" vertex="1" parent="1">
          <mxGeometry x="1015" y="523" width="90" height="30" as="geometry" />
        </mxCell>
        <mxCell id="MVeQhwrsyIrDF9fDx8zw-49" value="" style="fontStyle=0;verticalAlign=top;align=center;spacingTop=-2;fillColor=none;rounded=0;whiteSpace=wrap;html=1;strokeColor=#919191;strokeWidth=2;dashed=1;container=1;collapsible=0;expand=0;recursiveResize=0;" vertex="1" parent="1">
          <mxGeometry x="960" y="130" width="190" height="460" as="geometry" />
        </mxCell>
        <mxCell id="MVeQhwrsyIrDF9fDx8zw-51" value="" style="fontStyle=0;verticalAlign=top;align=center;spacingTop=-2;fillColor=none;rounded=0;whiteSpace=wrap;html=1;strokeColor=#919191;strokeWidth=2;dashed=1;container=1;collapsible=0;expand=0;recursiveResize=0;" vertex="1" parent="1">
          <mxGeometry x="352" y="660" width="818" height="170" as="geometry" />
        </mxCell>
        <mxCell id="MVeQhwrsyIrDF9fDx8zw-55" value="" style="image;aspect=fixed;perimeter=ellipsePerimeter;html=1;align=center;shadow=0;dashed=0;fontColor=#4277BB;labelBackgroundColor=default;fontSize=12;spacingTop=3;image=img/lib/ibm/applications/app_server.svg;" vertex="1" parent="MVeQhwrsyIrDF9fDx8zw-51">
          <mxGeometry x="48" y="30" width="60" height="60" as="geometry" />
        </mxCell>
        <mxCell id="MVeQhwrsyIrDF9fDx8zw-53" style="edgeStyle=orthogonalEdgeStyle;rounded=0;orthogonalLoop=1;jettySize=auto;html=1;entryX=0.542;entryY=-0.012;entryDx=0;entryDy=0;entryPerimeter=0;" edge="1" parent="1" source="MVeQhwrsyIrDF9fDx8zw-26" target="MVeQhwrsyIrDF9fDx8zw-51">
          <mxGeometry relative="1" as="geometry" />
        </mxCell>
      </root>
    </mxGraphModel>
  </diagram>
</mxfile>
